# xmcd CD database file
#
# Track frame offsets:
#	150
#	20752
#	42690
#	57925
#	79775
#	100322
#	116697
#	131002
#	155145
#	185547
#
# Disc length: 2847 seconds
#
# Revision: 0
# Processed by: cddbd v1.4PL0 Copyright (c) Steve Scherf et al.
# Submitted via: CD2WAV32(EN) R3.19
#
DISCID=8f0b1d0a
DTITLE=Matt "Guitar" Murphy - Way Down South
DYEAR=1900
DGENRE=
TTITLE0=Way Down South
TTITLE1=Big Six
TTITLE2=Gonna Be Some Changes Made
TTITLE3=Big City Takedown
TTITLE4=Buck's Boogie
TTITLE5=Thump Tyme
TTITLE6=Matt's Guitar Boogie #2
TTITLE7=Low Down and Dirty
TTITLE8=Gimme Somma Dat
TTITLE9=Blue Walls
EXTD=
EXTT0=
EXTT1=
EXTT2=
EXTT3=
EXTT4=
EXTT5=
EXTT6=
EXTT7=
EXTT8=
EXTT9=
PLAYORDER=
